<svg xmlns="http://www.w3.org/2000/svg" width="1180" height="520" viewBox="0 0 1180 520">
  <defs>
    <marker id="arrow" markerWidth="10" markerHeight="10" refX="8" refY="3" orient="auto" markerUnits="strokeWidth">
      <path d="M0,0 L0,6 L9,3 z" fill="#2563eb"/>
    </marker>
    <linearGradient id="bg" x1="0" x2="1" y1="0" y2="1">
      <stop offset="0%" stop-color="#dbeafe"/>
      <stop offset="100%" stop-color="#ffffff"/>
    </linearGradient>
  </defs>
  <rect width="100%" height="100%" fill="url(#bg)"/>
  <text x="80" y="72" font-family="Inter, Arial, sans-serif" font-size="34" font-weight="800" fill="#0f172a">Seedance 2.5 Creative Workflow</text>
  <text x="80" y="108" font-family="Inter, Arial, sans-serif" font-size="16" fill="#475569">Plan references, write prompts, generate video drafts, and refine creative direction.</text>
  <g font-family="Inter, Arial, sans-serif">
    <path d="M252 250 L300 250" stroke="#2563eb" stroke-width="2" marker-end="url(#arrow)"/>
    <path d="M472 250 L520 250" stroke="#2563eb" stroke-width="2" marker-end="url(#arrow)"/>
    <path d="M692 250 L740 250" stroke="#2563eb" stroke-width="2" marker-end="url(#arrow)"/>
    <path d="M912 250 L960 250" stroke="#2563eb" stroke-width="2" marker-end="url(#arrow)"/>
    <g>
      <rect x="80" y="200" width="160" height="100" rx="14" fill="white" stroke="#2563eb" stroke-width="2"/>
      <text x="160" y="240" text-anchor="middle" font-size="16" font-weight="700" fill="#111827">Idea</text>
      <text x="160" y="264" text-anchor="middle" font-size="13" fill="#475569">scene goal</text>
    </g>
    <g>
      <rect x="300" y="200" width="160" height="100" rx="14" fill="white" stroke="#2563eb" stroke-width="2"/>
      <text x="380" y="240" text-anchor="middle" font-size="16" font-weight="700" fill="#111827">References</text>
      <text x="380" y="264" text-anchor="middle" font-size="13" fill="#475569">image / video</text>
    </g>
    <g>
      <rect x="520" y="200" width="160" height="100" rx="14" fill="white" stroke="#2563eb" stroke-width="2"/>
      <text x="600" y="240" text-anchor="middle" font-size="16" font-weight="700" fill="#111827">Prompt Plan</text>
      <text x="600" y="264" text-anchor="middle" font-size="13" fill="#475569">camera + motion</text>
    </g>
    <g>
      <rect x="740" y="200" width="160" height="100" rx="14" fill="white" stroke="#2563eb" stroke-width="2"/>
      <text x="820" y="240" text-anchor="middle" font-size="16" font-weight="700" fill="#111827">Generate</text>
      <text x="820" y="264" text-anchor="middle" font-size="13" fill="#475569">video draft</text>
    </g>
    <g>
      <rect x="960" y="200" width="160" height="100" rx="14" fill="white" stroke="#2563eb" stroke-width="2"/>
      <text x="1040" y="240" text-anchor="middle" font-size="16" font-weight="700" fill="#111827">Refine</text>
      <text x="1040" y="264" text-anchor="middle" font-size="13" fill="#475569">iterate output</text>
    </g>
  </g>
  <text x="1100" y="478" text-anchor="end" font-family="Inter, Arial, sans-serif" font-size="14" fill="#64748b">JXP Seedance 2.5 workflow example</text>
</svg>
